<svg width="50" height="50" viewBox="0 0 50 50" fill="none" xmlns="http://www.w3.org/2000/svg">
<g clip-path="url(#clip0)" filter="url(#filter0_i)">
<path d="M7.69969 40.0676L47.0186 40.2177C48.2285 40.2223 49.2131 39.2452 49.2177 38.0353L49.319 11.5145C49.3236 10.3046 48.3465 9.32 47.1366 9.31538L2.34365 9.14437C1.13374 9.13975 0.149151 10.1169 0.144532 11.3268L0.0614926 33.0764L7.69969 40.0676Z" fill="#F6C358"/>
<path d="M46.2435 14.0552L46.1728 32.5844C46.1695 33.4614 45.4558 34.1697 44.5788 34.1663L24.0875 34.0881C23.2105 34.0847 22.5022 33.3711 22.5056 32.4941L22.5763 13.9647C22.5797 13.0877 23.2933 12.3795 24.1703 12.3828L44.6618 12.461C45.5386 12.4645 46.2469 13.1782 46.2435 14.0552Z" fill="#DC8744"/>
<path d="M22.0722 19.4081L22.0647 21.3701L46.7626 21.4644L46.7701 19.5024L22.0722 19.4081Z" fill="#F6C358"/>
<path d="M26.6744 11.3705L26.6399 20.4045L28.6019 20.412L28.6364 11.378L26.6744 11.3705Z" fill="#F6C358"/>
<path d="M32.8885 11.3945L32.854 20.4285L34.8161 20.436L34.8505 11.402L32.8885 11.3945Z" fill="#F6C358"/>
<path d="M39.5919 10.6023L39.5574 19.6357L41.5194 19.6432L41.5539 10.6098L39.5919 10.6023Z" fill="#F6C358"/>
<path d="M41.494 26.6741L41.4598 35.6258L39.4977 35.6183L39.5244 28.6286L17.7379 28.5455L17.7454 26.5834L41.494 26.6741Z" fill="#F6C358"/>
<path d="M32.8279 27.277L32.7935 36.311L34.7555 36.3185L34.79 27.2845L32.8279 27.277Z" fill="#F6C358"/>
<path d="M26.6153 26.8212L26.5808 35.8552L28.5429 35.8627L28.5774 26.8287L26.6153 26.8212Z" fill="#F6C358"/>
</g>
<defs>
<filter id="filter0_i" x="0" y="0" width="49.3622" height="51.3622" filterUnits="userSpaceOnUse" color-interpolation-filters="sRGB">
<feFlood flood-opacity="0" result="BackgroundImageFix"/>
<feBlend mode="normal" in="SourceGraphic" in2="BackgroundImageFix" result="shape"/>
<feColorMatrix in="SourceAlpha" type="matrix" values="0 0 0 0 0 0 0 0 0 0 0 0 0 0 0 0 0 0 127 0" result="hardAlpha"/>
<feOffset dy="2"/>
<feGaussianBlur stdDeviation="2.5"/>
<feComposite in2="hardAlpha" operator="arithmetic" k2="-1" k3="1"/>
<feColorMatrix type="matrix" values="0 0 0 0 0 0 0 0 0 0 0 0 0 0 0 0 0 0 0.13 0"/>
<feBlend mode="normal" in2="shape" result="effect1_innerShadow"/>
</filter>
<clipPath id="clip0">
<rect width="49.1748" height="49.1748" fill="white" transform="translate(0 49.1743) rotate(-89.7812)"/>
</clipPath>
</defs>
</svg>
